M48
; DRILL file {KiCad (6.0.10-0)} date 2023 January 15, Sunday 22:18:37
; FORMAT={-:-/ absolute / inch / decimal}
; #@! TF.CreationDate,2023-01-15T22:18:37+09:00
; #@! TF.GenerationSoftware,Kicad,Pcbnew,(6.0.10-0)
; #@! TF.FileFunction,Plated,1,2,PTH
FMAT,2
INCH
; #@! TA.AperFunction,Plated,PTH,ViaDrill
T1C0.0157
; #@! TA.AperFunction,Plated,PTH,ComponentDrill
T2C0.0197
; #@! TA.AperFunction,Plated,PTH,ComponentDrill
T3C0.0236
; #@! TA.AperFunction,Plated,PTH,ComponentDrill
T4C0.0276
%
G90
G05
T1
X5.1Y-4.0
X5.3Y-3.7
X5.4Y-4.4
X5.8Y-3.5
X6.1Y-4.0734
X6.2Y-3.6
T2
X4.8Y-3.8606
X4.8Y-3.9
X4.8Y-4.3606
X4.8Y-4.4
X4.8014Y-4.1125
X4.8014Y-4.1518
X5.6213Y-3.4589
X5.6213Y-3.4982
X6.0Y-3.459
X6.0Y-3.4984
X6.3Y-3.9
X6.3Y-3.9394
X6.3Y-3.9787
X6.3Y-4.0181
X6.3005Y-3.627
X6.3005Y-3.6663
X6.3005Y-3.7057
T3
X5.5Y-4.2015
X5.5Y-4.2605
X5.8425Y-4.2
X5.8425Y-4.2591
X5.9409Y-4.0
X6.0Y-4.0
T4
X4.9Y-4.4
X5.0Y-3.7
X5.0Y-3.9
X5.1Y-4.4
X5.2Y-3.7
X5.2Y-3.9
X5.4Y-3.7
X5.5Y-3.9854
X5.6Y-3.7
X5.7Y-3.9854
X5.8Y-3.7
X6.0Y-3.7
T0
M30
