%TF.GenerationSoftware,KiCad,Pcbnew,(6.0.10-0)*%
%TF.CreationDate,2023-01-15T22:19:43+09:00*%
%TF.ProjectId,interface,696e7465-7266-4616-9365-2e6b69636164,rev?*%
%TF.SameCoordinates,Original*%
%TF.FileFunction,Copper,L2,Bot*%
%TF.FilePolarity,Positive*%
%FSLAX46Y46*%
G04 Gerber Fmt 4.6, Leading zero omitted, Abs format (unit mm)*
G04 Created by KiCad (PCBNEW (6.0.10-0)) date 2023-01-15 22:19:43*
%MOMM*%
%LPD*%
G01*
G04 APERTURE LIST*
%TA.AperFunction,ComponentPad*%
%ADD10C,1.400000*%
%TD*%
%TA.AperFunction,ComponentPad*%
%ADD11O,1.400000X1.400000*%
%TD*%
%TA.AperFunction,ComponentPad*%
%ADD12R,0.850000X0.850000*%
%TD*%
%TA.AperFunction,ComponentPad*%
%ADD13O,0.850000X0.850000*%
%TD*%
%TA.AperFunction,ComponentPad*%
%ADD14R,1.200000X1.200000*%
%TD*%
%TA.AperFunction,ComponentPad*%
%ADD15C,1.200000*%
%TD*%
%TA.AperFunction,ViaPad*%
%ADD16C,0.800000*%
%TD*%
%TA.AperFunction,Conductor*%
%ADD17C,0.250000*%
%TD*%
G04 APERTURE END LIST*
D10*
%TO.P,R4,1*%
%TO.N,Net-(R4-Pad1)*%
X144780000Y-101230000D03*
D11*
%TO.P,R4,2*%
%TO.N,Net-(C1-Pad2)*%
X139700000Y-101230000D03*
%TD*%
D12*
%TO.P,J4,1,Pin_1*%
%TO.N,Net-(J4-Pad1)*%
X121954870Y-104456250D03*
D13*
%TO.P,J4,2,Pin_2*%
%TO.N,Net-(J4-Pad2)*%
X121954870Y-105456250D03*
%TD*%
D12*
%TO.P,J3,1,Pin_1*%
%TO.N,Net-(C3-Pad2)*%
X121920000Y-98060000D03*
D13*
%TO.P,J3,2,Pin_2*%
%TO.N,Net-(R1-Pad1)*%
X121920000Y-99060000D03*
%TD*%
D12*
%TO.P,J6,1,Pin_1*%
%TO.N,Net-(C3-Pad2)*%
X142781724Y-87855000D03*
D13*
%TO.P,J6,2,Pin_2*%
%TO.N,Net-(R2-Pad2)*%
X142781724Y-88855000D03*
%TD*%
D10*
%TO.P,R6,1*%
%TO.N,Net-(J1-Pad1)*%
X147320000Y-93980000D03*
D11*
%TO.P,R6,2*%
%TO.N,Net-(J4-Pad2)*%
X152400000Y-93980000D03*
%TD*%
D10*
%TO.P,R5,1*%
%TO.N,Net-(J4-Pad2)*%
X137160000Y-93980000D03*
D11*
%TO.P,R5,2*%
%TO.N,Net-(J7-Pad2)*%
X142240000Y-93980000D03*
%TD*%
D10*
%TO.P,R3,1*%
%TO.N,Net-(J5-Pad2)*%
X124460000Y-111760000D03*
D11*
%TO.P,R3,2*%
%TO.N,Net-(C1-Pad1)*%
X129540000Y-111760000D03*
%TD*%
D10*
%TO.P,R2,1*%
%TO.N,Net-(C1-Pad2)*%
X127000000Y-99060000D03*
D11*
%TO.P,R2,2*%
%TO.N,Net-(R2-Pad2)*%
X132080000Y-99060000D03*
%TD*%
D10*
%TO.P,R1,1*%
%TO.N,Net-(R1-Pad1)*%
X127000000Y-93980000D03*
D11*
%TO.P,R1,2*%
%TO.N,Net-(C1-Pad2)*%
X132080000Y-93980000D03*
%TD*%
D12*
%TO.P,J7,1,Pin_1*%
%TO.N,Net-(J4-Pad1)*%
X152400000Y-88858750D03*
D13*
%TO.P,J7,2,Pin_2*%
%TO.N,Net-(J7-Pad2)*%
X152400000Y-87858750D03*
%TD*%
D12*
%TO.P,J5,1,Pin_1*%
%TO.N,Net-(C3-Pad2)*%
X121920000Y-110760000D03*
D13*
%TO.P,J5,2,Pin_2*%
%TO.N,Net-(J5-Pad2)*%
X121920000Y-111760000D03*
%TD*%
D12*
%TO.P,J2,1,Pin_1*%
%TO.N,Net-(C1-Pad1)*%
X160020000Y-99060000D03*
D13*
%TO.P,J2,2,Pin_2*%
%TO.N,Net-(R4-Pad1)*%
X160020000Y-100060000D03*
%TO.P,J2,3,Pin_3*%
%TO.N,unconnected-(J2-Pad3)*%
X160020000Y-101060000D03*
%TO.P,J2,4,Pin_4*%
%TO.N,Net-(C3-Pad2)*%
X160020000Y-102060000D03*
%TD*%
D12*
%TO.P,J1,1,Pin_1*%
%TO.N,Net-(J1-Pad1)*%
X160032026Y-92125000D03*
D13*
%TO.P,J1,2,Pin_2*%
%TO.N,unconnected-(J1-Pad2)*%
X160032026Y-93125000D03*
%TO.P,J1,3,Pin_3*%
%TO.N,Net-(J4-Pad1)*%
X160032026Y-94125000D03*
%TD*%
D14*
%TO.P,C3,1*%
%TO.N,Net-(C1-Pad2)*%
X139700000Y-106717446D03*
D15*
%TO.P,C3,2*%
%TO.N,Net-(C3-Pad2)*%
X139700000Y-108217446D03*
%TD*%
D14*
%TO.P,C2,1*%
%TO.N,Net-(C1-Pad2)*%
X148400000Y-106680000D03*
D15*
%TO.P,C2,2*%
%TO.N,Net-(C3-Pad2)*%
X148400000Y-108180000D03*
%TD*%
D14*
%TO.P,C1,1*%
%TO.N,Net-(C1-Pad1)*%
X152400000Y-101600000D03*
D15*
%TO.P,C1,2*%
%TO.N,Net-(C1-Pad2)*%
X150900000Y-101600000D03*
%TD*%
D16*
%TO.N,Net-(C1-Pad1)*%
X154940000Y-103465000D03*
%TO.N,Net-(C3-Pad2)*%
X129540000Y-101600000D03*
%TO.N,Net-(R2-Pad2)*%
X134620000Y-93980000D03*
%TO.N,Net-(J1-Pad1)*%
X157480000Y-91440000D03*
%TO.N,Net-(J4-Pad1)*%
X147320000Y-88900000D03*
%TO.N,Net-(C1-Pad1)*%
X137160000Y-111760000D03*
%TD*%
D17*
%TO.N,Net-(C3-Pad2)*%
X129540000Y-101600000D02*
X126135000Y-101600000D01*
X126135000Y-101600000D02*
X122595000Y-98060000D01*
X122595000Y-98060000D02*
X121920000Y-98060000D01*
X132080000Y-101600000D02*
X129540000Y-101600000D01*
X142781724Y-87855000D02*
X143456724Y-87855000D01*
X143531724Y-90148276D02*
X132080000Y-101600000D01*
X143531724Y-87930000D02*
X143531724Y-90148276D01*
X143456724Y-87855000D02*
X143531724Y-87930000D01*
%TO.N,Net-(R2-Pad2)*%
X134620000Y-93980000D02*
X134620000Y-96520000D01*
X134620000Y-96520000D02*
X132080000Y-99060000D01*
%TO.N,Net-(J1-Pad1)*%
X157480000Y-91440000D02*
X149860000Y-91440000D01*
X149860000Y-91440000D02*
X147320000Y-93980000D01*
%TO.N,Net-(J4-Pad1)*%
X147320000Y-88900000D02*
X145870431Y-88900000D01*
X145870431Y-88900000D02*
X130314181Y-104456250D01*
X130314181Y-104456250D02*
X121954870Y-104456250D01*
%TO.N,Net-(C1-Pad1)*%
X160020000Y-99060000D02*
X159345000Y-99060000D01*
X159345000Y-99060000D02*
X154940000Y-103465000D01*
X154940000Y-103465000D02*
X154940000Y-104140000D01*
X137160000Y-111760000D02*
X146361852Y-111760000D01*
X146361852Y-111760000D02*
X153056852Y-105065000D01*
X153056852Y-105065000D02*
X154015000Y-105065000D01*
X154015000Y-105065000D02*
X154940000Y-104140000D01*
%TD*%
M02*
